<svg width="89" height="24" viewBox="0 0 89 24" fill="none" xmlns="http://www.w3.org/2000/svg">
<path d="M11.9989 7.47893C11.9985 7.46538 11.998 7.45183 11.9969 7.43819C11.9957 7.42451 11.994 7.41101 11.9922 7.39754C11.9912 7.39059 11.9909 7.38367 11.9898 7.37667L11.2398 2.87667C11.2237 2.77947 11.1885 2.6864 11.1364 2.60278C11.0843 2.51916 11.0162 2.44663 10.936 2.38934C10.8559 2.33205 10.7652 2.29111 10.6692 2.26887C10.5732 2.24663 10.4738 2.24352 10.3766 2.25972C10.2794 2.27592 10.1864 2.31112 10.1028 2.36329C10.0192 2.41547 9.9467 2.4836 9.88946 2.5638C9.83222 2.644 9.79134 2.73469 9.76916 2.8307C9.74699 2.9267 9.74394 3.02613 9.76021 3.12331L10.3646 6.74999H8.625V2.99999C8.625 2.80108 8.54598 2.61031 8.40533 2.46966C8.26468 2.32901 8.07391 2.24999 7.875 2.24999C7.67609 2.24999 7.48532 2.32901 7.34467 2.46966C7.20402 2.61031 7.125 2.80108 7.125 2.99999V6.74999H5.38536L5.98979 3.12331C6.00606 3.02613 6.00301 2.9267 5.98083 2.8307C5.95866 2.73469 5.91778 2.644 5.86053 2.5638C5.80329 2.4836 5.73081 2.41547 5.64722 2.36329C5.56364 2.31112 5.47059 2.27592 5.3734 2.25972C5.27621 2.24352 5.17678 2.24663 5.08079 2.26887C4.9848 2.29111 4.89413 2.33205 4.81397 2.38934C4.73381 2.44663 4.66572 2.51916 4.6136 2.60278C4.56148 2.6864 4.52635 2.77947 4.51021 2.87667L3.76021 7.37667C3.75906 7.38367 3.75879 7.39059 3.75778 7.39754C3.75595 7.411 3.75426 7.42451 3.75311 7.43819C3.75197 7.45183 3.75146 7.46538 3.75105 7.47893C3.75087 7.48598 3.75 7.4929 3.75 7.49999C3.75 7.50667 3.75046 7.51322 3.7505 7.51986C3.75064 7.52448 3.75064 7.52906 3.75087 7.53364C3.75993 8.4912 4.1014 9.41586 4.71687 10.1495C5.33235 10.8831 6.18359 11.3801 7.125 11.5554V21C7.125 21.1989 7.20402 21.3897 7.34467 21.5303C7.48532 21.671 7.67609 21.75 7.875 21.75C8.07391 21.75 8.26468 21.671 8.40533 21.5303C8.54598 21.3897 8.625 21.1989 8.625 21V11.5554C9.56641 11.3801 10.4177 10.8831 11.0331 10.1495C11.6486 9.41586 11.9901 8.49119 11.9991 7.53364C11.9994 7.52906 11.9994 7.52448 11.9995 7.51986C11.9995 7.51322 12 7.50667 12 7.49999C12 7.4929 11.9991 7.48598 11.9989 7.47893Z" fill="black"/>
<path d="M19.8743 2.98673C19.874 2.97126 19.8732 2.95578 19.8719 2.94026C19.8711 2.92973 19.8702 2.9193 19.8689 2.90891C19.8673 2.89595 19.8653 2.883 19.863 2.87004C19.8607 2.85699 19.8582 2.84409 19.8552 2.83131C19.8529 2.82115 19.8502 2.81104 19.8474 2.80092C19.8432 2.78586 19.8388 2.77103 19.8337 2.75638C19.8323 2.75217 19.8313 2.74791 19.8298 2.7437C19.8281 2.73917 19.826 2.73495 19.8242 2.73047C19.8186 2.71577 19.8125 2.70134 19.8059 2.68716C19.8017 2.67791 19.7973 2.66879 19.7927 2.65979C19.7866 2.64771 19.7801 2.63582 19.7732 2.62413C19.7672 2.61365 19.761 2.60335 19.7545 2.59323C19.7483 2.58371 19.7419 2.57446 19.7353 2.56522C19.7274 2.55405 19.7193 2.54311 19.7108 2.53249C19.7046 2.52466 19.6981 2.51711 19.6916 2.50955C19.6822 2.49875 19.6727 2.48808 19.6627 2.47787C19.6558 2.47073 19.6486 2.46387 19.6413 2.457C19.6313 2.44748 19.6213 2.43814 19.6108 2.42921C19.6024 2.42203 19.5936 2.41525 19.5849 2.40843C19.5751 2.40083 19.5652 2.39328 19.5551 2.38614C19.5447 2.37886 19.534 2.37204 19.5232 2.36531C19.5141 2.35959 19.505 2.35382 19.4956 2.34851C19.4834 2.34155 19.4709 2.33514 19.4583 2.32887C19.4496 2.32457 19.441 2.32027 19.4322 2.31628C19.4189 2.31033 19.4054 2.30493 19.3917 2.29971C19.3826 2.29628 19.3736 2.29285 19.3644 2.28973C19.3513 2.28529 19.338 2.2814 19.3246 2.27769C19.3138 2.27472 19.3032 2.27193 19.2924 2.26941C19.2805 2.26671 19.2684 2.26437 19.2563 2.26222C19.2432 2.25984 19.23 2.25783 19.2167 2.25618C19.2065 2.25494 19.1962 2.25394 19.1859 2.25307C19.1706 2.25183 19.1551 2.25105 19.1396 2.25073C19.1347 2.25064 19.1299 2.25 19.125 2.25C19.1204 2.25 19.116 2.2506 19.1115 2.25069C19.0961 2.25096 19.0807 2.25179 19.0653 2.25302C19.0547 2.25385 19.0443 2.2548 19.0338 2.25609C19.0209 2.25769 19.008 2.2597 18.995 2.26199C18.982 2.26428 18.969 2.2668 18.9563 2.26978C18.9461 2.27211 18.936 2.27476 18.9259 2.27756C18.9108 2.28168 18.896 2.28621 18.8813 2.29129C18.8771 2.29271 18.8729 2.29362 18.8687 2.29513C18.8594 2.29852 18.8503 2.30255 18.8411 2.30598C18.8376 2.3074 18.8341 2.30864 18.8306 2.3101C16.8984 3.03625 15.3511 5.4066 14.2315 9.35806C13.7236 11.1814 13.3551 13.0408 13.1293 14.9201C13.1181 15.0247 13.129 15.1305 13.1614 15.2306C13.1937 15.3308 13.2468 15.423 13.3171 15.5012C13.3875 15.5795 13.4735 15.6421 13.5696 15.685C13.6657 15.7278 13.7697 15.75 13.875 15.75H18.375V21C18.375 21.1989 18.454 21.3897 18.5946 21.5303C18.7353 21.671 18.9261 21.75 19.125 21.75C19.3239 21.75 19.5146 21.671 19.6553 21.5303C19.7959 21.3897 19.875 21.1989 19.875 21V3C19.875 2.99551 19.8744 2.99121 19.8743 2.98673Z" fill="black"/>
<path d="M37.1122 17H38.6634L40.8061 9.37358H40.8857L43.0284 17H44.5746L47.4034 6.81818H45.7827L43.804 14.7081H43.7095L41.6463 6.81818H40.0455L37.9822 14.7031H37.8878L35.9041 6.81818H34.2884L37.1122 17ZM50.9441 17.1541C52.6096 17.1541 53.7878 16.3338 54.1259 15.0909L52.7189 14.8374C52.4505 15.5582 51.8042 15.9261 50.959 15.9261C49.6863 15.9261 48.8312 15.1009 48.7914 13.6293H54.2204V13.1023C54.2204 10.343 52.5698 9.2642 50.8397 9.2642C48.7118 9.2642 47.3098 10.8849 47.3098 13.2315C47.3098 15.603 48.6919 17.1541 50.9441 17.1541ZM48.7963 12.5156C48.856 11.4318 49.6415 10.4922 50.8496 10.4922C52.003 10.4922 52.7587 11.3473 52.7637 12.5156H48.7963ZM61.312 11.228C61.0037 10.0398 60.0741 9.2642 58.4235 9.2642C56.6983 9.2642 55.4753 10.174 55.4753 11.5263C55.4753 12.6101 56.1316 13.331 57.5634 13.6491L58.856 13.9325C59.5918 14.0966 59.9349 14.4247 59.9349 14.902C59.9349 15.4936 59.3035 15.956 58.329 15.956C57.4391 15.956 56.8674 15.5732 56.6884 14.8224L55.2516 15.0412C55.5002 16.3935 56.6238 17.1541 58.339 17.1541C60.1834 17.1541 61.4611 16.1747 61.4611 14.7926C61.4611 13.7138 60.7751 13.0476 59.3731 12.7244L58.16 12.446C57.3198 12.2472 56.9569 11.9638 56.9618 11.4467C56.9569 10.8601 57.5932 10.4425 58.4384 10.4425C59.3631 10.4425 59.7907 10.9545 59.9647 11.4666L61.312 11.228ZM66.3802 9.36364H64.8141V7.53409H63.3276V9.36364H62.209V10.5568H63.3276V15.0661C63.3226 16.4531 64.3816 17.1243 65.5549 17.0994C66.0272 17.0945 66.3454 17.005 66.5194 16.9403L66.2509 15.7124C66.1515 15.7322 65.9675 15.777 65.7289 15.777C65.2466 15.777 64.8141 15.6179 64.8141 14.7578V10.5568H66.3802V9.36364ZM70.9537 17.1541C72.6192 17.1541 73.7974 16.3338 74.1355 15.0909L72.7285 14.8374C72.4601 15.5582 71.8138 15.9261 70.9686 15.9261C69.6959 15.9261 68.8408 15.1009 68.801 13.6293H74.23V13.1023C74.23 10.343 72.5794 9.2642 70.8493 9.2642C68.7214 9.2642 67.3195 10.8849 67.3195 13.2315C67.3195 15.603 68.7016 17.1541 70.9537 17.1541ZM68.806 12.5156C68.8656 11.4318 69.6511 10.4922 70.8592 10.4922C72.0126 10.4922 72.7683 11.3473 72.7733 12.5156H68.806ZM75.5993 17H77.0858V12.3366C77.0858 11.3374 77.8564 10.6165 78.9104 10.6165C79.2186 10.6165 79.5666 10.6712 79.6859 10.706V9.28409C79.5368 9.2642 79.2435 9.24929 79.0545 9.24929C78.1597 9.24929 77.394 9.75639 77.1156 10.5767H77.0361V9.36364H75.5993V17ZM82.1788 12.4659C82.1788 11.2479 82.9246 10.5518 83.9587 10.5518C84.9679 10.5518 85.5794 11.2131 85.5794 12.3217V17H87.0659V12.1428C87.0659 10.2536 86.0269 9.2642 84.4658 9.2642C83.3173 9.2642 82.5666 9.79616 82.2136 10.6065H82.1192V9.36364H80.6923V17H82.1788V12.4659Z" fill="black" fill-opacity="0.6"/>
</svg>
